<svg width="32" height="32" viewBox="0 0 32 32" fill="none" xmlns="http://www.w3.org/2000/svg">
<rect width="32" height="32" rx="4" fill="#1D213B"/>
<path d="M19.3333 16.75V20.25C19.3333 23.1666 18.1667 24.3333 15.25 24.3333H11.75C8.83333 24.3333 7.66666 23.1666 7.66666 20.25V16.75C7.66666 13.8333 8.83333 12.6666 11.75 12.6666H15.25C18.1667 12.6666 19.3333 13.8333 19.3333 16.75Z" stroke="white" stroke-width="1.16667" stroke-linecap="round" stroke-linejoin="round"/>
<path d="M24.3333 11.75V15.25C24.3333 18.1666 23.1667 19.3333 20.25 19.3333H19.3333V16.75C19.3333 13.8333 18.1667 12.6666 15.25 12.6666H12.6667V11.75C12.6667 8.83329 13.8333 7.66663 16.75 7.66663H20.25C23.1667 7.66663 24.3333 8.83329 24.3333 11.75Z" stroke="white" stroke-width="1.16667" stroke-linecap="round" stroke-linejoin="round"/>
</svg>
