<svg width="24" height="24" viewBox="0 0 24 24" fill="none" xmlns="http://www.w3.org/2000/svg">
<g clip-path="url(#clip0_30_4881)">
<path d="M18.1617 7.46386H7.44573C7.23356 7.46386 7.03008 7.54814 6.88005 7.69817C6.73002 7.8482 6.64573 8.05169 6.64573 8.26386C6.64573 8.47603 6.73002 8.67952 6.88005 8.82954C7.03008 8.97957 7.23356 9.06386 7.44573 9.06386H18.1617C18.2668 9.06386 18.3708 9.08455 18.4679 9.12476C18.5649 9.16496 18.6531 9.22389 18.7274 9.29817C18.8017 9.37246 18.8606 9.46065 18.9008 9.55771C18.941 9.65477 18.9617 9.7588 18.9617 9.86386V16.8399C18.9617 17.052 18.8774 17.2555 18.7274 17.4055C18.5774 17.5556 18.3739 17.6399 18.1617 17.6399H6.37473C6.02012 17.6396 5.68004 17.4989 5.42891 17.2485C5.17779 16.9981 5.03606 16.6585 5.03473 16.3039V7.19586C5.035 6.84055 5.17626 6.49987 5.4275 6.24863C5.67875 5.99739 6.01943 5.85612 6.37473 5.85586H18.6967C18.9089 5.85586 19.1124 5.77157 19.2624 5.62154C19.4124 5.47152 19.4967 5.26803 19.4967 5.05586C19.4967 4.84369 19.4124 4.6402 19.2624 4.49017C19.1124 4.34014 18.9089 4.25586 18.6967 4.25586H6.37473C5.5946 4.25665 4.84653 4.56643 4.29423 5.11741C3.74194 5.6684 3.43038 6.41572 3.42773 7.19586V16.3039C3.42879 17.085 3.73965 17.8339 4.29212 18.3862C4.84459 18.9385 5.59356 19.2491 6.37473 19.2499H18.1617C18.8009 19.2491 19.4137 18.9948 19.8657 18.5428C20.3177 18.0908 20.5719 17.4781 20.5727 16.8389V9.87486C20.5719 9.23567 20.3177 8.62288 19.8657 8.1709C19.4137 7.71892 18.8009 7.46465 18.1617 7.46386ZM17.3617 13.3569C17.3617 13.0725 17.2488 12.7999 17.0478 12.5988C16.8467 12.3978 16.574 12.2849 16.2897 12.2849C16.0054 12.2849 15.7328 12.3978 15.5317 12.5988C15.3307 12.7999 15.2177 13.0725 15.2177 13.3569C15.2191 13.6396 15.332 13.9104 15.5321 14.1102C15.7321 14.3101 16.003 14.4228 16.2857 14.4239C16.5692 14.4239 16.8411 14.3116 17.042 14.1116C17.2429 13.9117 17.3564 13.6403 17.3577 13.3569H17.3617Z" fill="white"/>
</g>
<defs>
<clipPath id="clip0_30_4881">
<rect width="24" height="24" fill="white"/>
</clipPath>
</defs>
</svg>
